# xmcd
#
# Track frame offsets:
#	150
#	16524
#	33126
#	50913
#	69657
#	84105
#	102169
#	119733
#	135077
#	153013
#	169465
#	185929
#	204365
#	222892
#	238507
#	256636
#	274340
#	292390
#	308892
#
# Disc length: 4348 seconds
#
# Revision: 2
# Processed by: cddbd v1.5.2PL0 Copyright (c) Steve Scherf et al.
# Submitted via: audiograbber 1.83.01
#
DISCID=0d10fa13
DTITLE=Various Artist - ZM-PB-15-CD-1
DYEAR=2015
DGENRE=Karaoke
TTITLE0=5 Seconds Of Summer - Good Girls
TTITLE1=Adam Lambert - Ghost Town
TTITLE2=Alesso Ft Roy English - Cool
TTITLE3=Ariana Grande Ft The Weeknd - Love Me Harder
TTITLE4=Avicii - Nights, The
TTITLE5=Avicii Ft Martin Garrix - Waiting For Love
TTITLE6=Band Aid 30 - Do They Know It's Christmas (2014)
TTITLE7=Becky G - Can't Stop Dancin'
TTITLE8=Ben Haenow - Something I Need
TTITLE9=Calvin Harris And The Disciples - How Deep Is Your Love
TTITLE10=Carly Rae Jepsen - I Really Like You
TTITLE11=Charli XCX - Doing It
TTITLE12=Charli XCX - Famous
TTITLE13=Charlie Puth Ft Meghan Trainor - Marvin Gaye
TTITLE14=Cheryl - Only Human
TTITLE15=Clean Bandit - Stronger
TTITLE16=Clean Bandit Ft Jess Glynne - Real Love
TTITLE17=David Guetta Ft Emeli Sande - What I Did For Love
TTITLE18=Demi Lovato - Cool For The Summer
EXTD=
EXTT0=
EXTT1=
EXTT2=
EXTT3=
EXTT4=
EXTT5=
EXTT6=
EXTT7=
EXTT8=
EXTT9=
EXTT10=
EXTT11=
EXTT12=
EXTT13=
EXTT14=
EXTT15=
EXTT16=
EXTT17=
EXTT18=
PLAYORDER=
